<svg xmlns="http://www.w3.org/2000/svg" viewBox="0 0 190 48" fill="none" role="img" aria-label="NOUT">

  <!-- ── Soleil blanc (pour fond sombre) ── -->
  <g>
    <g stroke="white" stroke-width="2.5" stroke-linecap="round">
      <line x1="24" y1="2"  x2="24" y2="8"  />
      <line x1="24" y1="2"  x2="24" y2="8"  transform="rotate(45  24 24)"/>
      <line x1="24" y1="2"  x2="24" y2="8"  transform="rotate(90  24 24)"/>
      <line x1="24" y1="2"  x2="24" y2="8"  transform="rotate(135 24 24)"/>
      <line x1="24" y1="2"  x2="24" y2="8"  transform="rotate(180 24 24)"/>
      <line x1="24" y1="2"  x2="24" y2="8"  transform="rotate(225 24 24)"/>
      <line x1="24" y1="2"  x2="24" y2="8"  transform="rotate(270 24 24)"/>
      <line x1="24" y1="2"  x2="24" y2="8"  transform="rotate(315 24 24)"/>
    </g>

    <circle cx="24" cy="24" r="13" fill="white" fill-opacity="0.18"/>
    <circle cx="24" cy="24" r="13" stroke="white" stroke-width="1.5" fill="none"/>

    <rect x="14" y="14" width="5" height="20" rx="1" fill="white"/>
    <rect x="29" y="14" width="5" height="20" rx="1" fill="white"/>
    <polygon points="19,14 24,14 29,34 24,34" fill="white"/>
  </g>

  <text
    x="56" y="33"
    font-family="Nunito, 'Segoe UI', sans-serif"
    font-weight="900"
    font-size="28"
    letter-spacing="1.5"
    fill="white"
  >NOUT</text>

  <text
    x="57" y="44"
    font-family="Inter, sans-serif"
    font-weight="600"
    font-size="9"
    letter-spacing="3"
    fill="white"
    opacity="0.65"
  >RÉUNION 974</text>

</svg>
